<?xml version="1.0" encoding="UTF-8" standalone="no"?>
<!-- Created with Inkscape (http://www.inkscape.org/) -->

<svg
   version="1.1"
   id="svg2577"
   width="757.37927"
   height="368.88318"
   viewBox="0 0 757.37926 368.88318"
   sodipodi:docname="ekokkosystem.svg"
   inkscape:version="1.2.2 (b0a8486541, 2022-12-01)"
   xmlns:inkscape="http://www.inkscape.org/namespaces/inkscape"
   xmlns:sodipodi="http://sodipodi.sourceforge.net/DTD/sodipodi-0.dtd"
   xmlns="http://www.w3.org/2000/svg"
   xmlns:svg="http://www.w3.org/2000/svg">
  <defs
     id="defs2581">
    <clipPath
       clipPathUnits="userSpaceOnUse"
       id="clipPath2591">
      <path
         d="M 0,0.028 H 793.417 V 446.399 H 0 Z"
         clip-rule="evenodd"
         id="path2589" />
    </clipPath>
    <clipPath
       clipPathUnits="userSpaceOnUse"
       id="clipPath2607">
      <path
         d="M 5.64,7.256 H 34.402 V 36.018 H 5.64 Z"
         clip-rule="evenodd"
         id="path2605" />
    </clipPath>
    <clipPath
       clipPathUnits="userSpaceOnUse"
       id="clipPath2619">
      <path
         d="m 11.788,16.748 h 16.467 v 0.717 H 11.788 Z"
         clip-rule="evenodd"
         id="path2617" />
    </clipPath>
    <clipPath
       clipPathUnits="userSpaceOnUse"
       id="clipPath2629">
      <path
         d="m 590.201,396.489 h 201.911 v 49.91 H 590.201 Z"
         clip-rule="evenodd"
         id="path2627" />
    </clipPath>
    <clipPath
       clipPathUnits="userSpaceOnUse"
       id="clipPath4145">
      <g
         id="g4149"
         style="stroke-width:1">
        <path
           d="M 0,0.028 H 793.417 V 446.399 H 0 Z"
           clip-rule="evenodd"
           id="path4147"
           style="stroke-width:0.75" />
      </g>
    </clipPath>
    <clipPath
       clipPathUnits="userSpaceOnUse"
       id="clipPath4157">
      <g
         id="g4161"
         style="stroke-width:1">
        <path
           d="M 0,0.028 H 793.417 V 446.399 H 0 Z"
           clip-rule="evenodd"
           id="path4159"
           style="stroke-width:0.75" />
      </g>
    </clipPath>
    <clipPath
       clipPathUnits="userSpaceOnUse"
       id="clipPath4169">
      <g
         id="g4173"
         style="stroke-width:1">
        <path
           d="M 0,0.028 H 793.417 V 446.399 H 0 Z"
           clip-rule="evenodd"
           id="path4171"
           style="stroke-width:0.75" />
      </g>
    </clipPath>
    <clipPath
       clipPathUnits="userSpaceOnUse"
       id="clipPath4181">
      <g
         id="g4185"
         style="stroke-width:1">
        <path
           d="M 0,0.028 H 793.417 V 446.399 H 0 Z"
           clip-rule="evenodd"
           id="path4183"
           style="stroke-width:0.75" />
      </g>
    </clipPath>
    <clipPath
       clipPathUnits="userSpaceOnUse"
       id="clipPath4193">
      <g
         id="g4197"
         style="stroke-width:1">
        <path
           d="M 0,0.028 H 793.417 V 446.399 H 0 Z"
           clip-rule="evenodd"
           id="path4195"
           style="stroke-width:0.75" />
      </g>
    </clipPath>
    <clipPath
       clipPathUnits="userSpaceOnUse"
       id="clipPath4205">
      <g
         id="g4209"
         style="stroke-width:1">
        <path
           d="M 0,0.028 H 793.417 V 446.399 H 0 Z"
           clip-rule="evenodd"
           id="path4207"
           style="stroke-width:0.75" />
      </g>
    </clipPath>
    <clipPath
       clipPathUnits="userSpaceOnUse"
       id="clipPath4217">
      <g
         id="g4221"
         style="stroke-width:1">
        <path
           d="M 0,0.028 H 793.417 V 446.399 H 0 Z"
           clip-rule="evenodd"
           id="path4219"
           style="stroke-width:0.75" />
      </g>
    </clipPath>
    <clipPath
       clipPathUnits="userSpaceOnUse"
       id="clipPath4229">
      <g
         id="g4233"
         style="stroke-width:1">
        <path
           d="M 0,0.028 H 793.417 V 446.399 H 0 Z"
           clip-rule="evenodd"
           id="path4231"
           style="stroke-width:0.75" />
      </g>
    </clipPath>
    <clipPath
       clipPathUnits="userSpaceOnUse"
       id="clipPath4241">
      <g
         id="g4245"
         style="stroke-width:1">
        <path
           d="M 0,0.028 H 793.417 V 446.399 H 0 Z"
           clip-rule="evenodd"
           id="path4243"
           style="stroke-width:0.75" />
      </g>
    </clipPath>
    <clipPath
       clipPathUnits="userSpaceOnUse"
       id="clipPath4253">
      <g
         id="g4257"
         style="stroke-width:1">
        <path
           d="M 0,0.028 H 793.417 V 446.399 H 0 Z"
           clip-rule="evenodd"
           id="path4255"
           style="stroke-width:0.75" />
      </g>
    </clipPath>
    <clipPath
       clipPathUnits="userSpaceOnUse"
       id="clipPath4265">
      <g
         id="g4269"
         style="stroke-width:1">
        <path
           d="M 0,0.028 H 793.417 V 446.399 H 0 Z"
           clip-rule="evenodd"
           id="path4267"
           style="stroke-width:0.75" />
      </g>
    </clipPath>
    <clipPath
       clipPathUnits="userSpaceOnUse"
       id="clipPath4277">
      <g
         id="g4281"
         style="stroke-width:1">
        <path
           d="M 0,0.028 H 793.417 V 446.399 H 0 Z"
           clip-rule="evenodd"
           id="path4279"
           style="stroke-width:0.75" />
      </g>
    </clipPath>
    <clipPath
       clipPathUnits="userSpaceOnUse"
       id="clipPath4289">
      <g
         id="g4293"
         style="stroke-width:1">
        <path
           d="M 0,0.028 H 793.417 V 446.399 H 0 Z"
           clip-rule="evenodd"
           id="path4291"
           style="stroke-width:0.75" />
      </g>
    </clipPath>
    <clipPath
       clipPathUnits="userSpaceOnUse"
       id="clipPath4301">
      <g
         id="g4305"
         style="stroke-width:1">
        <path
           d="M 0,0.028 H 793.417 V 446.399 H 0 Z"
           clip-rule="evenodd"
           id="path4303"
           style="stroke-width:0.75" />
      </g>
    </clipPath>
    <clipPath
       clipPathUnits="userSpaceOnUse"
       id="clipPath4307">
      <g
         id="g4311"
         style="stroke-width:1">
        <path
           d="M 0,0.028 H 793.417 V 446.399 H 0 Z"
           clip-rule="evenodd"
           id="path4309"
           style="stroke-width:0.75" />
      </g>
    </clipPath>
    <clipPath
       clipPathUnits="userSpaceOnUse"
       id="clipPath4319">
      <g
         id="g4323"
         style="stroke-width:1">
        <path
           d="M 0,0.028 H 793.417 V 446.399 H 0 Z"
           clip-rule="evenodd"
           id="path4321"
           style="stroke-width:0.75" />
      </g>
    </clipPath>
    <clipPath
       clipPathUnits="userSpaceOnUse"
       id="clipPath4331">
      <g
         id="g4335"
         style="stroke-width:1">
        <path
           d="M 0,0.028 H 793.417 V 446.399 H 0 Z"
           clip-rule="evenodd"
           id="path4333"
           style="stroke-width:0.75" />
      </g>
    </clipPath>
    <clipPath
       clipPathUnits="userSpaceOnUse"
       id="clipPath4343">
      <g
         id="g4347"
         style="stroke-width:1">
        <path
           d="M 0,0.028 H 793.417 V 446.399 H 0 Z"
           clip-rule="evenodd"
           id="path4345"
           style="stroke-width:0.75" />
      </g>
    </clipPath>
    <clipPath
       clipPathUnits="userSpaceOnUse"
       id="clipPath4355">
      <g
         id="g4359"
         style="stroke-width:1">
        <path
           d="M 0,0.028 H 793.417 V 446.399 H 0 Z"
           clip-rule="evenodd"
           id="path4357"
           style="stroke-width:0.75" />
      </g>
    </clipPath>
    <clipPath
       clipPathUnits="userSpaceOnUse"
       id="clipPath4367">
      <g
         id="g4371"
         style="stroke-width:1">
        <path
           d="M 0,0.028 H 793.417 V 446.399 H 0 Z"
           clip-rule="evenodd"
           id="path4369"
           style="stroke-width:0.75" />
      </g>
    </clipPath>
    <clipPath
       clipPathUnits="userSpaceOnUse"
       id="clipPath4373">
      <g
         id="g4377"
         style="stroke-width:1">
        <path
           d="M 0,0.028 H 793.417 V 446.399 H 0 Z"
           clip-rule="evenodd"
           id="path4375"
           style="stroke-width:0.75" />
      </g>
    </clipPath>
    <clipPath
       clipPathUnits="userSpaceOnUse"
       id="clipPath4385">
      <g
         id="g4389"
         style="stroke-width:1">
        <path
           d="M 0,0.028 H 793.417 V 446.399 H 0 Z"
           clip-rule="evenodd"
           id="path4387"
           style="stroke-width:0.75" />
      </g>
    </clipPath>
    <clipPath
       clipPathUnits="userSpaceOnUse"
       id="clipPath4397">
      <g
         id="g4401"
         style="stroke-width:1">
        <path
           d="M 0,0.028 H 793.417 V 446.399 H 0 Z"
           clip-rule="evenodd"
           id="path4399"
           style="stroke-width:0.75" />
      </g>
    </clipPath>
    <clipPath
       clipPathUnits="userSpaceOnUse"
       id="clipPath4409">
      <g
         id="g4413"
         style="stroke-width:1">
        <path
           d="M 0,0.028 H 793.417 V 446.399 H 0 Z"
           clip-rule="evenodd"
           id="path4411"
           style="stroke-width:0.75" />
      </g>
    </clipPath>
    <clipPath
       clipPathUnits="userSpaceOnUse"
       id="clipPath4421">
      <g
         id="g4425"
         style="stroke-width:1">
        <path
           d="M 0,0.028 H 793.417 V 446.399 H 0 Z"
           clip-rule="evenodd"
           id="path4423"
           style="stroke-width:0.75" />
      </g>
    </clipPath>
    <clipPath
       clipPathUnits="userSpaceOnUse"
       id="clipPath4433">
      <g
         id="g4437"
         style="stroke-width:1">
        <path
           d="M 0,0.028 H 793.417 V 446.399 H 0 Z"
           clip-rule="evenodd"
           id="path4435"
           style="stroke-width:0.75" />
      </g>
    </clipPath>
    <clipPath
       clipPathUnits="userSpaceOnUse"
       id="clipPath4445">
      <g
         id="g4449"
         style="stroke-width:1">
        <path
           d="M 0,0.028 H 793.417 V 446.399 H 0 Z"
           clip-rule="evenodd"
           id="path4447"
           style="stroke-width:0.75" />
      </g>
    </clipPath>
    <clipPath
       clipPathUnits="userSpaceOnUse"
       id="clipPath4457">
      <g
         id="g4461"
         style="stroke-width:1">
        <path
           d="M 0,0.028 H 793.417 V 446.399 H 0 Z"
           clip-rule="evenodd"
           id="path4459"
           style="stroke-width:0.75" />
      </g>
    </clipPath>
    <clipPath
       clipPathUnits="userSpaceOnUse"
       id="clipPath4469">
      <g
         id="g4473"
         style="stroke-width:1">
        <path
           d="M 0,0.028 H 793.417 V 446.399 H 0 Z"
           clip-rule="evenodd"
           id="path4471"
           style="stroke-width:0.75" />
      </g>
    </clipPath>
    <clipPath
       clipPathUnits="userSpaceOnUse"
       id="clipPath4481">
      <g
         id="g4485"
         style="stroke-width:1">
        <path
           d="M 0,0.028 H 793.417 V 446.399 H 0 Z"
           clip-rule="evenodd"
           id="path4483"
           style="stroke-width:0.75" />
      </g>
    </clipPath>
    <clipPath
       clipPathUnits="userSpaceOnUse"
       id="clipPath4493">
      <g
         id="g4497"
         style="stroke-width:1">
        <path
           d="M 0,0.028 H 793.417 V 446.399 H 0 Z"
           clip-rule="evenodd"
           id="path4495"
           style="stroke-width:0.75" />
      </g>
    </clipPath>
    <clipPath
       clipPathUnits="userSpaceOnUse"
       id="clipPath4506">
      <g
         id="g4512"
         style="stroke-width:1">
        <g
           id="g4510"
           style="stroke-width:1">
          <path
             d="M 0,0.028 H 793.417 V 446.399 H 0 Z"
             clip-rule="evenodd"
             id="path4508"
             style="stroke-width:0.75" />
        </g>
      </g>
    </clipPath>
    <clipPath
       clipPathUnits="userSpaceOnUse"
       id="clipPath4521">
      <g
         id="g4527"
         style="stroke-width:1">
        <g
           id="g4525"
           style="stroke-width:1">
          <path
             d="M 0,0.028 H 793.417 V 446.399 H 0 Z"
             clip-rule="evenodd"
             id="path4523"
             style="stroke-width:0.75" />
        </g>
      </g>
    </clipPath>
    <clipPath
       clipPathUnits="userSpaceOnUse"
       id="clipPath4536">
      <g
         id="g4542"
         style="stroke-width:1">
        <g
           id="g4540"
           style="stroke-width:1">
          <path
             d="M 0,0.028 H 793.417 V 446.399 H 0 Z"
             clip-rule="evenodd"
             id="path4538"
             style="stroke-width:0.75" />
        </g>
      </g>
    </clipPath>
    <clipPath
       clipPathUnits="userSpaceOnUse"
       id="clipPath5279">
      <g
         id="g5285"
         style="stroke-width:1">
        <g
           id="g5283"
           style="stroke-width:1">
          <path
             d="M 0,0.028 H 793.417 V 446.399 H 0 Z"
             clip-rule="evenodd"
             id="path5281"
             style="stroke-width:0.75" />
        </g>
      </g>
    </clipPath>
    <clipPath
       clipPathUnits="userSpaceOnUse"
       id="clipPath5308">
      <g
         id="g5314"
         style="stroke-width:1">
        <g
           id="g5312"
           style="stroke-width:1">
          <path
             d="M 0,0.028 H 793.417 V 446.399 H 0 Z"
             clip-rule="evenodd"
             id="path5310"
             style="stroke-width:0.75" />
        </g>
      </g>
    </clipPath>
    <clipPath
       clipPathUnits="userSpaceOnUse"
       id="clipPath5325">
      <g
         id="g5331"
         style="stroke-width:1">
        <g
           id="g5329"
           style="stroke-width:1">
          <path
             d="M 0,0.028 H 793.417 V 446.399 H 0 Z"
             clip-rule="evenodd"
             id="path5327"
             style="stroke-width:0.75" />
        </g>
      </g>
    </clipPath>
    <clipPath
       clipPathUnits="userSpaceOnUse"
       id="clipPath5340">
      <g
         id="g5346"
         style="stroke-width:1">
        <g
           id="g5344"
           style="stroke-width:1">
          <path
             d="M 0,0.028 H 793.417 V 446.399 H 0 Z"
             clip-rule="evenodd"
             id="path5342"
             style="stroke-width:0.75" />
        </g>
      </g>
    </clipPath>
    <clipPath
       clipPathUnits="userSpaceOnUse"
       id="clipPath5355">
      <g
         id="g5361"
         style="stroke-width:1">
        <g
           id="g5359"
           style="stroke-width:1">
          <path
             d="M 0,0.028 H 793.417 V 446.399 H 0 Z"
             clip-rule="evenodd"
             id="path5357"
             style="stroke-width:0.75" />
        </g>
      </g>
    </clipPath>
    <clipPath
       clipPathUnits="userSpaceOnUse"
       id="clipPath5370">
      <g
         id="g5376"
         style="stroke-width:1">
        <g
           id="g5374"
           style="stroke-width:1">
          <path
             d="M 0,0.028 H 793.417 V 446.399 H 0 Z"
             clip-rule="evenodd"
             id="path5372"
             style="stroke-width:0.75" />
        </g>
      </g>
    </clipPath>
    <clipPath
       clipPathUnits="userSpaceOnUse"
       id="clipPath5385">
      <g
         id="g5391"
         style="stroke-width:1">
        <g
           id="g5389"
           style="stroke-width:1">
          <path
             d="M 0,0.028 H 793.417 V 446.399 H 0 Z"
             clip-rule="evenodd"
             id="path5387"
             style="stroke-width:0.75" />
        </g>
      </g>
    </clipPath>
    <clipPath
       clipPathUnits="userSpaceOnUse"
       id="clipPath5406">
      <g
         id="g5412"
         style="stroke-width:1">
        <g
           id="g5410"
           style="stroke-width:1">
          <path
             d="M 0,0.028 H 793.417 V 446.399 H 0 Z"
             clip-rule="evenodd"
             id="path5408"
             style="stroke-width:0.75" />
        </g>
      </g>
    </clipPath>
    <clipPath
       clipPathUnits="userSpaceOnUse"
       id="clipPath5425">
      <g
         id="g5431"
         style="stroke-width:1">
        <g
           id="g5429"
           style="stroke-width:1">
          <path
             d="M 0,0.028 H 793.417 V 446.399 H 0 Z"
             clip-rule="evenodd"
             id="path5427"
             style="stroke-width:0.75" />
        </g>
      </g>
    </clipPath>
    <clipPath
       clipPathUnits="userSpaceOnUse"
       id="clipPath5442">
      <g
         id="g5448"
         style="stroke-width:1">
        <g
           id="g5446"
           style="stroke-width:1">
          <path
             d="M 0,0.028 H 793.417 V 446.399 H 0 Z"
             clip-rule="evenodd"
             id="path5444"
             style="stroke-width:0.75" />
        </g>
      </g>
    </clipPath>
    <clipPath
       clipPathUnits="userSpaceOnUse"
       id="clipPath5457">
      <g
         id="g5463"
         style="stroke-width:1">
        <g
           id="g5461"
           style="stroke-width:1">
          <path
             d="M 0,0.028 H 793.417 V 446.399 H 0 Z"
             clip-rule="evenodd"
             id="path5459"
             style="stroke-width:0.75" />
        </g>
      </g>
    </clipPath>
    <clipPath
       clipPathUnits="userSpaceOnUse"
       id="clipPath5472">
      <g
         id="g5478"
         style="stroke-width:1">
        <g
           id="g5476"
           style="stroke-width:1">
          <path
             d="M 0,0.028 H 793.417 V 446.399 H 0 Z"
             clip-rule="evenodd"
             id="path5474"
             style="stroke-width:0.75" />
        </g>
      </g>
    </clipPath>
    <clipPath
       clipPathUnits="userSpaceOnUse"
       id="clipPath5489">
      <g
         id="g5495"
         style="stroke-width:1">
        <g
           id="g5493"
           style="stroke-width:1">
          <path
             d="M 0,0.028 H 793.417 V 446.399 H 0 Z"
             clip-rule="evenodd"
             id="path5491"
             style="stroke-width:0.75" />
        </g>
      </g>
    </clipPath>
    <clipPath
       clipPathUnits="userSpaceOnUse"
       id="clipPath5504">
      <g
         id="g5510"
         style="stroke-width:1">
        <g
           id="g5508"
           style="stroke-width:1">
          <path
             d="M 0,0.028 H 793.417 V 446.399 H 0 Z"
             clip-rule="evenodd"
             id="path5506"
             style="stroke-width:0.75" />
        </g>
      </g>
    </clipPath>
    <clipPath
       clipPathUnits="userSpaceOnUse"
       id="clipPath5527">
      <g
         id="g5533"
         style="stroke-width:1">
        <g
           id="g5531"
           style="stroke-width:1">
          <path
             d="M 0,0.028 H 793.417 V 446.399 H 0 Z"
             clip-rule="evenodd"
             id="path5529"
             style="stroke-width:0.75" />
        </g>
      </g>
    </clipPath>
    <clipPath
       clipPathUnits="userSpaceOnUse"
       id="clipPath5542">
      <g
         id="g5548"
         style="stroke-width:1">
        <g
           id="g5546"
           style="stroke-width:1">
          <path
             d="M 0,0.028 H 793.417 V 446.399 H 0 Z"
             clip-rule="evenodd"
             id="path5544"
             style="stroke-width:0.75" />
        </g>
      </g>
    </clipPath>
    <clipPath
       clipPathUnits="userSpaceOnUse"
       id="clipPath5557">
      <g
         id="g5563"
         style="stroke-width:1">
        <g
           id="g5561"
           style="stroke-width:1">
          <path
             d="M 0,0.028 H 793.417 V 446.399 H 0 Z"
             clip-rule="evenodd"
             id="path5559"
             style="stroke-width:0.75" />
        </g>
      </g>
    </clipPath>
    <clipPath
       clipPathUnits="userSpaceOnUse"
       id="clipPath5572">
      <g
         id="g5578"
         style="stroke-width:1">
        <g
           id="g5576"
           style="stroke-width:1">
          <path
             d="M 0,0.028 H 793.417 V 446.399 H 0 Z"
             clip-rule="evenodd"
             id="path5574"
             style="stroke-width:0.75" />
        </g>
      </g>
    </clipPath>
    <clipPath
       clipPathUnits="userSpaceOnUse"
       id="clipPath5587">
      <g
         id="g5593"
         style="stroke-width:1">
        <g
           id="g5591"
           style="stroke-width:1">
          <path
             d="M 0,0.028 H 793.417 V 446.399 H 0 Z"
             clip-rule="evenodd"
             id="path5589"
             style="stroke-width:0.75" />
        </g>
      </g>
    </clipPath>
    <clipPath
       clipPathUnits="userSpaceOnUse"
       id="clipPath5604">
      <g
         id="g5610"
         style="stroke-width:1">
        <g
           id="g5608"
           style="stroke-width:1">
          <path
             d="M 0,0.028 H 793.417 V 446.399 H 0 Z"
             clip-rule="evenodd"
             id="path5606"
             style="stroke-width:0.75" />
        </g>
      </g>
    </clipPath>
    <clipPath
       clipPathUnits="userSpaceOnUse"
       id="clipPath5619">
      <g
         id="g5625"
         style="stroke-width:1">
        <g
           id="g5623"
           style="stroke-width:1">
          <path
             d="M 0,0.028 H 793.417 V 446.399 H 0 Z"
             clip-rule="evenodd"
             id="path5621"
             style="stroke-width:0.75" />
        </g>
      </g>
    </clipPath>
    <clipPath
       clipPathUnits="userSpaceOnUse"
       id="clipPath5634">
      <g
         id="g5640"
         style="stroke-width:1">
        <g
           id="g5638"
           style="stroke-width:1">
          <path
             d="M 0,0.028 H 793.417 V 446.399 H 0 Z"
             clip-rule="evenodd"
             id="path5636"
             style="stroke-width:0.75" />
        </g>
      </g>
    </clipPath>
    <clipPath
       clipPathUnits="userSpaceOnUse"
       id="clipPath5655">
      <g
         id="g5661"
         style="stroke-width:1">
        <g
           id="g5659"
           style="stroke-width:1">
          <path
             d="M 0,0.028 H 793.417 V 446.399 H 0 Z"
             clip-rule="evenodd"
             id="path5657"
             style="stroke-width:0.75" />
        </g>
      </g>
    </clipPath>
    <clipPath
       clipPathUnits="userSpaceOnUse"
       id="clipPath5670">
      <g
         id="g5676"
         style="stroke-width:1">
        <g
           id="g5674"
           style="stroke-width:1">
          <path
             d="M 0,0.028 H 793.417 V 446.399 H 0 Z"
             clip-rule="evenodd"
             id="path5672"
             style="stroke-width:0.75" />
        </g>
      </g>
    </clipPath>
    <clipPath
       clipPathUnits="userSpaceOnUse"
       id="clipPath5687">
      <g
         id="g5693"
         style="stroke-width:1">
        <g
           id="g5691"
           style="stroke-width:1">
          <path
             d="M 0,0.028 H 793.417 V 446.399 H 0 Z"
             clip-rule="evenodd"
             id="path5689"
             style="stroke-width:0.75" />
        </g>
      </g>
    </clipPath>
    <clipPath
       clipPathUnits="userSpaceOnUse"
       id="clipPath5702">
      <g
         id="g5708"
         style="stroke-width:1">
        <g
           id="g5706"
           style="stroke-width:1">
          <path
             d="M 0,0.028 H 793.417 V 446.399 H 0 Z"
             clip-rule="evenodd"
             id="path5704"
             style="stroke-width:0.75" />
        </g>
      </g>
    </clipPath>
  </defs>
  <sodipodi:namedview
     id="namedview2579"
     pagecolor="#ffffff"
     bordercolor="#000000"
     borderopacity="0.25"
     inkscape:showpageshadow="2"
     inkscape:pageopacity="0.0"
     inkscape:pagecheckerboard="0"
     inkscape:deskcolor="#d1d1d1"
     showgrid="false"
     inkscape:zoom="0.94288115"
     inkscape:cx="263.5539"
     inkscape:cy="182.94989"
     inkscape:window-width="2560"
     inkscape:window-height="1403"
     inkscape:window-x="0"
     inkscape:window-y="0"
     inkscape:window-maximized="1"
     inkscape:current-layer="g2583" />
  <g
     id="g2583"
     inkscape:groupmode="layer"
     inkscape:label="2026-06-29-presentation_cea_riken"
     transform="matrix(1.3333333,0,0,-1.3333333,-150.27423,451.84374)">
    <path
       d="m 523.02,311.329 v 0 c 0,4.564 1.191,9.071 3.487,13.011 2.296,3.969 5.584,7.257 9.524,9.525 3.969,2.296 8.448,3.515 13.04,3.515 l 104.116,-0.029 v 0 c 4.564,0 9.071,-1.19 13.011,-3.486 3.969,-2.296 7.257,-5.585 9.525,-9.525 2.296,-3.968 3.515,-8.447 3.515,-13.039 v 0 -221.499 0 c 0,-4.564 -1.191,-9.071 -3.487,-13.011 -2.296,-3.969 -5.584,-7.257 -9.524,-9.525 -3.969,-2.296 -8.447,-3.515 -13.04,-3.515 H 549.043 v 0 c -4.564,0 -9.071,1.191 -13.012,3.487 -3.968,2.296 -7.256,5.584 -9.524,9.524 -2.296,3.969 -3.515,8.447 -3.515,13.04 z"
       style="fill:#ffffff;fill-opacity:1;fill-rule:evenodd;stroke:none"
       id="path2951"
       clip-path="url(#clipPath4493)" />
    <path
       id="path2955"
       clip-path="url(#clipPath4536)"
       style="fill:none;stroke:#0a427f;stroke-width:3.00467;stroke-linecap:butt;stroke-linejoin:round;stroke-miterlimit:10;stroke-dasharray:none;stroke-opacity:1"
       d="m 140.28662,337.38048 c -4.59299,0 -9.07104,-1.21963 -13.04003,-3.51563 -3.94,-2.268 -7.22696,-5.55542 -9.52295,-9.52441 -2.296,-3.94 -3.4878,-8.44675 -3.4878,-13.01074 l -0.0278,-221.528331 c 0,-4.592995 1.21963,-9.071043 3.51563,-13.040039 2.26799,-3.939996 5.55495,-7.226952 9.52295,-9.522949 3.93999,-2.295998 8.44674,-3.487793 13.01074,-3.487793 h 76.65234 c 0.14131,-0.0025 0.28042,-0.02783 0.42188,-0.02783 l 363.57276,0.02783 h 72.28272 c 4.59299,0 9.07104,1.219627 13.04004,3.515625 3.93999,2.267997 7.22841,5.555418 9.52441,9.524414 2.296,3.939996 3.48633,8.446747 3.48633,13.010742 V 311.3004 c 0,4.59199 -1.21816,9.07204 -3.51416,13.04004 -2.268,3.93999 -5.55688,7.22841 -9.52588,9.52441 -3.94,2.296 -8.44675,3.48633 -13.01074,3.48633 l -104.1167,0.0293 c -4.592,0 -9.07105,-1.21963 -13.04004,-3.51563 -3.94,-2.268 -7.22695,-5.55542 -9.52295,-9.52441 -2.296,-3.94 -3.4878,-8.44675 -3.4878,-13.01074 l -0.0132,-105.05274 H 270.45411 V 311.3004 c 0,4.59199 -1.21963,9.07204 -3.51563,13.04004 -2.26799,3.93999 -5.55542,7.22841 -9.52441,9.52441 -3.94,2.296 -8.44675,3.48633 -13.01074,3.48633 z" />
    <path
       d="m 270.425,100.8 v 0 c 0,1.077 0.284,2.126 0.822,3.061 0.539,0.936 1.304,1.73 2.24,2.268 0.935,0.539 2.012,0.822 3.089,0.822 l 240.265,-0.028 v 0 c 1.077,0 2.126,-0.284 3.061,-0.822 0.936,-0.539 1.729,-1.304 2.268,-2.24 0.539,-0.935 0.822,-2.012 0.822,-3.089 v 0 -24.548 0 c 0,-1.078 -0.283,-2.126 -0.822,-3.062 -0.539,-0.935 -1.304,-1.729 -2.239,-2.268 -0.936,-0.538 -2.013,-0.822 -3.09,-0.822 H 276.548 v 0 c -1.077,0 -2.126,0.284 -3.061,0.822 -0.936,0.539 -1.73,1.304 -2.268,2.24 -0.539,0.935 -0.822,2.012 -0.822,3.09 z"
       style="fill:#f3f3f3;fill-opacity:1;fill-rule:evenodd;stroke:none"
       id="path2969"
       clip-path="url(#clipPath4457)" />
    <path
       d="m 270.425,100.8 v 0 c 0,1.077 0.284,2.126 0.822,3.061 0.539,0.936 1.304,1.73 2.24,2.268 0.935,0.539 2.012,0.822 3.089,0.822 l 240.265,-0.028 v 0 c 1.077,0 2.126,-0.284 3.061,-0.822 0.936,-0.539 1.729,-1.304 2.268,-2.24 0.539,-0.935 0.822,-2.012 0.822,-3.089 v 0 -24.548 0 c 0,-1.078 -0.283,-2.126 -0.822,-3.062 -0.539,-0.935 -1.304,-1.729 -2.239,-2.268 -0.936,-0.538 -2.013,-0.822 -3.09,-0.822 H 276.548 v 0 c -1.077,0 -2.126,0.284 -3.061,0.822 -0.936,0.539 -1.73,1.304 -2.268,2.24 -0.539,0.935 -0.822,2.012 -0.822,3.09 z"
       style="fill:none;stroke:#0a427f;stroke-width:0.73699;stroke-linecap:butt;stroke-linejoin:round;stroke-miterlimit:10;stroke-dasharray:none;stroke-opacity:1"
       id="path2973"
       clip-path="url(#clipPath5702)" />
    <text
       xml:space="preserve"
       transform="scale(1,-1)"
       style="font-variant:normal;font-weight:normal;font-size:15.987px;font-family:Poppins;-inkscape-font-specification:Poppins-Regular;writing-mode:lr-tb;fill:#000000;fill-opacity:1;fill-rule:nonzero;stroke:none"
       id="text2979"
       x="342.08499"
       y="-82.120003"><tspan
         x="342.08499 351.54932 361.74902 369.99829 378.15167 388.35138 396.71259 400.93314 408.22324 417.79944 428.12704 433.99426 443.92218"
         y="-82.120003"
         sodipodi:role="line"
         id="tspan2977">Kokkos (core)</tspan></text>
    <path
       d="m 452.693,148.876 v 0 c 0,1.02 0.255,2.012 0.765,2.891 0.511,0.879 1.248,1.587 2.126,2.098 0.879,0.51 1.871,0.793 2.892,0.793 l 58.932,-0.028 v 0 c 1.02,0 2.012,-0.255 2.891,-0.765 0.879,-0.511 1.588,-1.248 2.098,-2.126 0.51,-0.879 0.794,-1.871 0.794,-2.892 v 0 -23.045 0 c 0,-1.021 -0.256,-2.013 -0.766,-2.892 -0.51,-0.879 -1.247,-1.587 -2.126,-2.097 -0.879,-0.511 -1.871,-0.794 -2.891,-0.794 h -58.961 v 0 c -1.02,0 -2.012,0.255 -2.891,0.765 -0.879,0.51 -1.587,1.247 -2.098,2.126 -0.51,0.879 -0.793,1.871 -0.793,2.892 z"
       style="fill:#f3f3f3;fill-opacity:1;fill-rule:evenodd;stroke:none"
       id="path2981"
       clip-path="url(#clipPath4445)" />
    <path
       d="m 452.693,148.876 v 0 c 0,1.02 0.255,2.012 0.765,2.891 0.511,0.879 1.248,1.587 2.126,2.098 0.879,0.51 1.871,0.793 2.892,0.793 l 58.932,-0.028 v 0 c 1.02,0 2.012,-0.255 2.891,-0.765 0.879,-0.511 1.588,-1.248 2.098,-2.126 0.51,-0.879 0.794,-1.871 0.794,-2.892 v 0 -23.045 0 c 0,-1.021 -0.256,-2.013 -0.766,-2.892 -0.51,-0.879 -1.247,-1.587 -2.126,-2.097 -0.879,-0.511 -1.871,-0.794 -2.891,-0.794 h -58.961 v 0 c -1.02,0 -2.012,0.255 -2.891,0.765 -0.879,0.51 -1.587,1.247 -2.098,2.126 -0.51,0.879 -0.793,1.871 -0.793,2.892 z"
       style="fill:none;stroke:#0a427f;stroke-width:0.73699;stroke-linecap:butt;stroke-linejoin:round;stroke-miterlimit:10;stroke-dasharray:none;stroke-opacity:1"
       id="path2985"
       clip-path="url(#clipPath5687)" />
    <text
       xml:space="preserve"
       transform="scale(1,-1)"
       style="font-variant:normal;font-weight:normal;font-size:11.991px;font-family:Poppins;-inkscape-font-specification:Poppins-Regular;writing-mode:lr-tb;fill:#000000;fill-opacity:1;fill-rule:nonzero;stroke:none"
       id="text2991"
       x="460.48801"
       y="-132.548"><tspan
         x="460.48801 467.31088 474.15775 481.34036 489.01459 495.10602 501.35333 509.02756"
         y="-132.548"
         sodipodi:role="line"
         id="tspan2989">PyKokkos</tspan></text>
    <path
       d="m 297.553,188.164 v 0 c 0,1.842 0.482,3.656 1.417,5.244 0.907,1.587 2.239,2.92 3.827,3.827 1.587,0.935 3.401,1.417 5.244,1.417 l 41.896,-0.028 v 0 c 1.843,0 3.657,-0.482 5.244,-1.418 1.588,-0.907 2.92,-2.239 3.827,-3.826 0.935,-1.588 1.417,-3.402 1.417,-5.245 v 0 -57.628 0 c 0,-1.842 -0.482,-3.657 -1.417,-5.244 -0.907,-1.587 -2.239,-2.92 -3.827,-3.827 -1.587,-0.935 -3.401,-1.417 -5.244,-1.417 h -41.924 v 0 c -1.843,0 -3.657,0.482 -5.244,1.417 -1.588,0.907 -2.92,2.24 -3.827,3.827 -0.936,1.587 -1.418,3.402 -1.418,5.244 z"
       style="fill:#f3f3f3;fill-opacity:1;fill-rule:evenodd;stroke:none"
       id="path2993"
       clip-path="url(#clipPath4433)" />
    <path
       d="m 297.553,188.164 v 0 c 0,1.842 0.482,3.656 1.417,5.244 0.907,1.587 2.239,2.92 3.827,3.827 1.587,0.935 3.401,1.417 5.244,1.417 l 41.896,-0.028 v 0 c 1.843,0 3.657,-0.482 5.244,-1.418 1.588,-0.907 2.92,-2.239 3.827,-3.826 0.935,-1.588 1.417,-3.402 1.417,-5.245 v 0 -57.628 0 c 0,-1.842 -0.482,-3.657 -1.417,-5.244 -0.907,-1.587 -2.239,-2.92 -3.827,-3.827 -1.587,-0.935 -3.401,-1.417 -5.244,-1.417 h -41.924 v 0 c -1.843,0 -3.657,0.482 -5.244,1.417 -1.588,0.907 -2.92,2.24 -3.827,3.827 -0.936,1.587 -1.418,3.402 -1.418,5.244 z"
       style="fill:none;stroke:#0a427f;stroke-width:0.73699;stroke-linecap:butt;stroke-linejoin:round;stroke-miterlimit:10;stroke-dasharray:none;stroke-opacity:1"
       id="path2997"
       clip-path="url(#clipPath5279)" />
    <text
       xml:space="preserve"
       transform="scale(1,-1)"
       style="font-variant:normal;font-weight:normal;font-size:13.011px;font-family:Poppins;-inkscape-font-specification:Poppins-Regular;writing-mode:lr-tb;fill:#000000;fill-opacity:1;fill-rule:nonzero;stroke:none"
       id="text3003"
       x="306.76501"
       y="-161.94299"><tspan
         x="306.76501 314.4545 322.74249 329.45618 336.16986 344.45786 351.18457"
         y="-161.94299"
         sodipodi:role="line"
         id="tspan3001">Kokkos </tspan></text>
    <text
       xml:space="preserve"
       transform="scale(1,-1)"
       style="font-variant:normal;font-weight:normal;font-size:13.011px;font-family:Poppins;-inkscape-font-specification:Poppins-Regular;writing-mode:lr-tb;fill:#000000;fill-opacity:1;fill-rule:nonzero;stroke:none"
       id="text3009"
       x="305.54599"
       y="-146.32401"><tspan
         x="305.54599 313.2355 321.28931 326.09036 334.46945 342.52325 345.6459"
         y="-146.32401"
         sodipodi:role="line"
         id="tspan3007">Kernels</tspan></text>
    <path
       d="m 452.58,192.869 v 0 c 0,1.021 0.255,2.013 0.765,2.892 0.51,0.878 1.247,1.587 2.126,2.097 0.879,0.511 1.871,0.794 2.891,0.794 l 58.932,-0.028 v 0 c 1.021,0 2.013,-0.255 2.892,-0.766 0.879,-0.51 1.587,-1.247 2.097,-2.126 0.511,-0.878 0.794,-1.871 0.794,-2.891 v 0 -23.046 0 c 0,-1.02 -0.255,-2.012 -0.765,-2.891 -0.51,-0.879 -1.247,-1.587 -2.126,-2.098 -0.879,-0.51 -1.871,-0.793 -2.892,-0.793 h -58.96 v 0 c -1.021,0 -2.013,0.255 -2.891,0.765 -0.879,0.51 -1.588,1.247 -2.098,2.126 -0.51,0.879 -0.794,1.871 -0.794,2.891 z"
       style="fill:#f3f3f3;fill-opacity:1;fill-rule:evenodd;stroke:none"
       id="path3011"
       clip-path="url(#clipPath4421)" />
    <path
       d="m 452.58,192.869 v 0 c 0,1.021 0.255,2.013 0.765,2.892 0.51,0.878 1.247,1.587 2.126,2.097 0.879,0.511 1.871,0.794 2.891,0.794 l 58.932,-0.028 v 0 c 1.021,0 2.013,-0.255 2.892,-0.766 0.879,-0.51 1.587,-1.247 2.097,-2.126 0.511,-0.878 0.794,-1.871 0.794,-2.891 v 0 -23.046 0 c 0,-1.02 -0.255,-2.012 -0.765,-2.891 -0.51,-0.879 -1.247,-1.587 -2.126,-2.098 -0.879,-0.51 -1.871,-0.793 -2.892,-0.793 h -58.96 v 0 c -1.021,0 -2.013,0.255 -2.891,0.765 -0.879,0.51 -1.588,1.247 -2.098,2.126 -0.51,0.879 -0.794,1.871 -0.794,2.891 z"
       style="fill:none;stroke:#0a427f;stroke-width:0.73699;stroke-linecap:butt;stroke-linejoin:round;stroke-miterlimit:10;stroke-dasharray:none;stroke-opacity:1"
       id="path3015"
       clip-path="url(#clipPath5308)" />
    <text
       xml:space="preserve"
       transform="scale(1,-1)"
       style="font-variant:normal;font-weight:normal;font-size:11.991px;font-family:Poppins;-inkscape-font-specification:Poppins-Regular;writing-mode:lr-tb;fill:#000000;fill-opacity:1;fill-rule:nonzero;stroke:none"
       id="text3021"
       x="467.20599"
       y="-183.742"><tspan
         x="467.20599 474.29269 481.96692 488.19025 494.30566 501.97989 508.31116"
         y="-183.742"
         sodipodi:role="line"
         id="tspan3019">Kokkos </tspan></text>
    <text
       xml:space="preserve"
       transform="scale(1,-1)"
       style="font-variant:normal;font-weight:normal;font-size:11.991px;font-family:Poppins;-inkscape-font-specification:Poppins-Regular;writing-mode:lr-tb;fill:#000000;fill-opacity:1;fill-rule:nonzero;stroke:none"
       id="text3027"
       x="466.98001"
       y="-169.342"><tspan
         x="466.98001 476.21307 483.8873 496.23804"
         y="-169.342"
         sodipodi:role="line"
         id="tspan3025">Comm</tspan></text>
    <path
       d="m 371.282,148.876 v 0 c 0,1.02 0.255,2.012 0.765,2.891 0.51,0.879 1.247,1.587 2.126,2.098 0.879,0.51 1.871,0.793 2.892,0.793 l 58.932,-0.028 v 0 c 1.02,0 2.012,-0.255 2.891,-0.765 0.879,-0.511 1.588,-1.248 2.098,-2.126 0.51,-0.879 0.794,-1.871 0.794,-2.892 v 0 -23.045 0 c 0,-1.021 -0.256,-2.013 -0.766,-2.892 -0.51,-0.879 -1.247,-1.587 -2.126,-2.097 -0.879,-0.511 -1.871,-0.794 -2.891,-0.794 h -58.961 v 0 c -1.02,0 -2.012,0.255 -2.891,0.765 -0.879,0.51 -1.588,1.247 -2.098,2.126 -0.51,0.879 -0.793,1.871 -0.793,2.892 z"
       style="fill:#f3f3f3;fill-opacity:1;fill-rule:evenodd;stroke:none"
       id="path3029"
       clip-path="url(#clipPath4409)" />
    <path
       d="m 371.282,148.876 v 0 c 0,1.02 0.255,2.012 0.765,2.891 0.51,0.879 1.247,1.587 2.126,2.098 0.879,0.51 1.871,0.793 2.892,0.793 l 58.932,-0.028 v 0 c 1.02,0 2.012,-0.255 2.891,-0.765 0.879,-0.511 1.588,-1.248 2.098,-2.126 0.51,-0.879 0.794,-1.871 0.794,-2.892 v 0 -23.045 0 c 0,-1.021 -0.256,-2.013 -0.766,-2.892 -0.51,-0.879 -1.247,-1.587 -2.126,-2.097 -0.879,-0.511 -1.871,-0.794 -2.891,-0.794 h -58.961 v 0 c -1.02,0 -2.012,0.255 -2.891,0.765 -0.879,0.51 -1.588,1.247 -2.098,2.126 -0.51,0.879 -0.793,1.871 -0.793,2.892 z"
       style="fill:none;stroke:#0a427f;stroke-width:0.73699;stroke-linecap:butt;stroke-linejoin:round;stroke-miterlimit:10;stroke-dasharray:none;stroke-opacity:1"
       id="path3033"
       clip-path="url(#clipPath5472)" />
    <text
       xml:space="preserve"
       transform="scale(1,-1)"
       style="font-variant:normal;font-weight:normal;font-size:10.998px;font-family:Poppins;-inkscape-font-specification:Poppins-Regular;writing-mode:lr-tb;fill:#000000;fill-opacity:1;fill-rule:nonzero;stroke:none"
       id="text3039"
       x="387.58099"
       y="-139.55"><tspan
         x="387.58099 394.16879 401.10855 406.88248 412.52448 419.57419 425.34814"
         y="-139.55"
         sodipodi:role="line"
         id="tspan3037">Kokkos </tspan></text>
    <text
       xml:space="preserve"
       transform="scale(1,-1)"
       style="font-variant:normal;font-weight:normal;font-size:10.998px;font-family:Poppins;-inkscape-font-specification:Poppins-Regular;writing-mode:lr-tb;fill:#000000;fill-opacity:1;fill-rule:nonzero;stroke:none"
       id="text3045"
       x="379.077"
       y="-126.34"><tspan
         x="379.077 385.67581 392.49457 398.37848 401.01801 403.7565 406.39603 413.2478 420.29752 427.00629"
         y="-126.34"
         sodipodi:role="line"
         id="tspan3043">Resilience</tspan></text>
    <path
       d="m 371.282,192.869 v 0 c 0,1.021 0.255,2.013 0.765,2.892 0.51,0.878 1.247,1.587 2.126,2.097 0.879,0.511 1.871,0.794 2.892,0.794 l 58.932,-0.028 v 0 c 1.02,0 2.012,-0.255 2.891,-0.766 0.879,-0.51 1.588,-1.247 2.098,-2.126 0.51,-0.878 0.794,-1.871 0.794,-2.891 v 0 -23.046 0 c 0,-1.02 -0.256,-2.012 -0.766,-2.891 -0.51,-0.879 -1.247,-1.587 -2.126,-2.098 -0.879,-0.51 -1.871,-0.793 -2.891,-0.793 h -58.961 v 0 c -1.02,0 -2.012,0.255 -2.891,0.765 -0.879,0.51 -1.588,1.247 -2.098,2.126 -0.51,0.879 -0.793,1.871 -0.793,2.891 z"
       style="fill:#f3f3f3;fill-opacity:1;fill-rule:evenodd;stroke:none"
       id="path3047"
       clip-path="url(#clipPath4397)" />
    <path
       d="m 371.282,192.869 v 0 c 0,1.021 0.255,2.013 0.765,2.892 0.51,0.878 1.247,1.587 2.126,2.097 0.879,0.511 1.871,0.794 2.892,0.794 l 58.932,-0.028 v 0 c 1.02,0 2.012,-0.255 2.891,-0.766 0.879,-0.51 1.588,-1.247 2.098,-2.126 0.51,-0.878 0.794,-1.871 0.794,-2.891 v 0 -23.046 0 c 0,-1.02 -0.256,-2.012 -0.766,-2.891 -0.51,-0.879 -1.247,-1.587 -2.126,-2.098 -0.879,-0.51 -1.871,-0.793 -2.891,-0.793 h -58.961 v 0 c -1.02,0 -2.012,0.255 -2.891,0.765 -0.879,0.51 -1.588,1.247 -2.098,2.126 -0.51,0.879 -0.793,1.871 -0.793,2.891 z"
       style="fill:none;stroke:#0a427f;stroke-width:0.73699;stroke-linecap:butt;stroke-linejoin:round;stroke-miterlimit:10;stroke-dasharray:none;stroke-opacity:1"
       id="path3051"
       clip-path="url(#clipPath5325)" />
    <text
       xml:space="preserve"
       transform="scale(1,-1)"
       style="font-variant:normal;font-weight:normal;font-size:10.488px;font-family:Poppins;-inkscape-font-specification:Poppins-Regular;writing-mode:lr-tb;fill:#000000;fill-opacity:1;fill-rule:nonzero;stroke:none"
       id="text3057"
       x="377.63101"
       y="-177.13699"><tspan
         x="377.63101 383.86087 390.45782 395.83817 401.2395 407.95181 413.36362 419.11105 424.37601 429.64099"
         y="-177.13699"
         sodipodi:role="line"
         id="tspan3055">Kokkos-FFT</tspan></text>
    <path
       d="m 270.425,121.039 h 5.386 v 77.585 h 10.772 v -77.585 h 5.386 l -10.772,-10.771 z"
       style="fill:#ffffff;fill-opacity:1;fill-rule:evenodd;stroke:none"
       id="path3059"
       clip-path="url(#clipPath4385)" />
    <path
       d="m 270.425,121.039 h 5.386 v 77.585 h 10.772 v -77.585 h 5.386 l -10.772,-10.771 z"
       style="fill:none;stroke:#0a427f;stroke-width:0.73699;stroke-linecap:butt;stroke-linejoin:round;stroke-miterlimit:10;stroke-dasharray:none;stroke-opacity:1"
       id="path3063"
       clip-path="url(#clipPath5489)" />
    <path
       d="m 128.211,301.408 v 0 c 0,3.713 0.964,7.342 2.835,10.573 1.842,3.203 4.507,5.868 7.738,7.71 3.203,1.871 6.86,2.835 10.545,2.835 h 84.501 v 0 c 3.713,0 7.342,-0.964 10.573,-2.835 3.203,-1.842 5.868,-4.507 7.71,-7.738 1.871,-3.203 2.835,-6.86 2.835,-10.545 v 0 l 0.028,-205.625 v 0 c 0,-3.714 -0.963,-7.342 -2.834,-10.574 -1.843,-3.203 -4.507,-5.867 -7.739,-7.71 -3.203,-1.871 -6.86,-2.834 -10.545,-2.834 l -84.529,-0.029 v 0 c -3.713,0 -7.342,0.964 -10.573,2.835 -3.203,1.842 -5.868,4.507 -7.71,7.738 -1.871,3.204 -2.835,6.86 -2.835,10.545 z"
       style="fill:#f3f3f3;fill-opacity:1;fill-rule:evenodd;stroke:none"
       id="path3067"
       clip-path="url(#clipPath4367)" />
    <path
       d="m 128.211,301.408 v 0 c 0,3.713 0.964,7.342 2.835,10.573 1.842,3.203 4.507,5.868 7.738,7.71 3.203,1.871 6.86,2.835 10.545,2.835 h 84.501 v 0 c 3.713,0 7.342,-0.964 10.573,-2.835 3.203,-1.842 5.868,-4.507 7.71,-7.738 1.871,-3.203 2.835,-6.86 2.835,-10.545 v 0 l 0.028,-205.625 v 0 c 0,-3.714 -0.963,-7.342 -2.834,-10.574 -1.843,-3.203 -4.507,-5.867 -7.739,-7.71 -3.203,-1.871 -6.86,-2.834 -10.545,-2.834 l -84.529,-0.029 v 0 c -3.713,0 -7.342,0.964 -10.573,2.835 -3.203,1.842 -5.868,4.507 -7.71,7.738 -1.871,3.204 -2.835,6.86 -2.835,10.545 z"
       style="fill:none;stroke:#0a427f;stroke-width:0.73699;stroke-linecap:butt;stroke-linejoin:round;stroke-miterlimit:10;stroke-dasharray:none;stroke-opacity:1"
       id="path3071"
       clip-path="url(#clipPath5542)" />
    <text
       xml:space="preserve"
       transform="scale(1,-1)"
       style="font-variant:normal;font-weight:normal;font-size:13.011px;font-family:Poppins;-inkscape-font-specification:Poppins-Regular;writing-mode:lr-tb;fill:#000000;fill-opacity:1;fill-rule:nonzero;stroke:none"
       id="text3077"
       x="152.022"
       y="-299.73499"><tspan
         x="152.022 159.7115 167.99951 174.71318 181.42686 189.71487 196.44156 199.9155 204.59946 212.88747 221.17546 224.42821"
         y="-299.73499"
         sodipodi:role="line"
         id="tspan3075">Kokkos tools</tspan></text>
    <path
       d="m 142.696,269.83 v 0 c 0,0.964 0.255,1.899 0.737,2.75 0.482,0.822 1.162,1.53 2.013,2.012 0.822,0.482 1.785,0.737 2.749,0.737 l 88.583,-0.028 v 0 c 0.964,0 1.899,-0.255 2.75,-0.737 0.822,-0.482 1.53,-1.162 2.012,-2.013 0.482,-0.822 0.737,-1.786 0.737,-2.749 v 0 -21.941 0 c 0,-0.963 -0.255,-1.899 -0.737,-2.749 -0.482,-0.822 -1.162,-1.531 -2.012,-2.013 -0.822,-0.482 -1.786,-0.737 -2.75,-0.737 h -88.611 v 0 c -0.964,0 -1.899,0.255 -2.75,0.737 -0.822,0.482 -1.53,1.162 -2.012,2.013 -0.482,0.822 -0.737,1.786 -0.737,2.749 z"
       style="fill:#ffffff;fill-opacity:1;fill-rule:evenodd;stroke:none"
       id="path3079"
       clip-path="url(#clipPath4355)" />
    <path
       d="m 142.696,269.83 v 0 c 0,0.964 0.255,1.899 0.737,2.75 0.482,0.822 1.162,1.53 2.013,2.012 0.822,0.482 1.785,0.737 2.749,0.737 l 88.583,-0.028 v 0 c 0.964,0 1.899,-0.255 2.75,-0.737 0.822,-0.482 1.53,-1.162 2.012,-2.013 0.482,-0.822 0.737,-1.786 0.737,-2.749 v 0 -21.941 0 c 0,-0.963 -0.255,-1.899 -0.737,-2.749 -0.482,-0.822 -1.162,-1.531 -2.012,-2.013 -0.822,-0.482 -1.786,-0.737 -2.75,-0.737 h -88.611 v 0 c -0.964,0 -1.899,0.255 -2.75,0.737 -0.822,0.482 -1.53,1.162 -2.012,2.013 -0.482,0.822 -0.737,1.786 -0.737,2.749 z"
       style="fill:none;stroke:#0a427f;stroke-width:0.73699;stroke-linecap:butt;stroke-linejoin:round;stroke-miterlimit:10;stroke-dasharray:none;stroke-opacity:1"
       id="path3083"
       clip-path="url(#clipPath5587)" />
    <text
       xml:space="preserve"
       transform="scale(1,-1)"
       style="font-variant:normal;font-weight:normal;font-size:10.006px;font-family:Poppins;-inkscape-font-specification:Poppins-Regular;writing-mode:lr-tb;fill:#000000;fill-opacity:1;fill-rule:nonzero;stroke:none"
       id="text3089"
       x="164.778"
       y="-254.86301"><tspan
         x="164.778 171.75218 177.98592 184.70995 191.06377 197.7878 204.51183 207.02333 213.40717"
         y="-254.86301"
         sodipodi:role="line"
         id="tspan3087">Debugging</tspan></text>
    <path
       d="m 142.696,218.665 v 0 c 0,0.963 0.255,1.899 0.737,2.749 0.482,0.822 1.162,1.531 2.013,2.013 0.822,0.482 1.785,0.737 2.749,0.737 l 88.583,-0.029 v 0 c 0.964,0 1.899,-0.255 2.75,-0.737 0.822,-0.481 1.53,-1.162 2.012,-2.012 0.482,-0.822 0.737,-1.786 0.737,-2.75 v 0 -21.94 0 c 0,-0.964 -0.255,-1.899 -0.737,-2.75 -0.482,-0.822 -1.162,-1.53 -2.012,-2.012 -0.822,-0.482 -1.786,-0.737 -2.75,-0.737 h -88.611 v 0 c -0.964,0 -1.899,0.255 -2.75,0.737 -0.822,0.482 -1.53,1.162 -2.012,2.012 -0.482,0.823 -0.737,1.786 -0.737,2.75 z"
       style="fill:#ffffff;fill-opacity:1;fill-rule:evenodd;stroke:none"
       id="path3091"
       clip-path="url(#clipPath4343)" />
    <path
       d="m 142.696,218.665 v 0 c 0,0.963 0.255,1.899 0.737,2.749 0.482,0.822 1.162,1.531 2.013,2.013 0.822,0.482 1.785,0.737 2.749,0.737 l 88.583,-0.029 v 0 c 0.964,0 1.899,-0.255 2.75,-0.737 0.822,-0.481 1.53,-1.162 2.012,-2.012 0.482,-0.822 0.737,-1.786 0.737,-2.75 v 0 -21.94 0 c 0,-0.964 -0.255,-1.899 -0.737,-2.75 -0.482,-0.822 -1.162,-1.53 -2.012,-2.012 -0.822,-0.482 -1.786,-0.737 -2.75,-0.737 h -88.611 v 0 c -0.964,0 -1.899,0.255 -2.75,0.737 -0.822,0.482 -1.53,1.162 -2.012,2.012 -0.482,0.823 -0.737,1.786 -0.737,2.75 z"
       style="fill:none;stroke:#0a427f;stroke-width:0.73699;stroke-linecap:butt;stroke-linejoin:round;stroke-miterlimit:10;stroke-dasharray:none;stroke-opacity:1"
       id="path3095"
       clip-path="url(#clipPath5370)" />
    <text
       xml:space="preserve"
       transform="scale(1,-1)"
       style="font-variant:normal;font-weight:normal;font-size:10.006px;font-family:Poppins;-inkscape-font-specification:Poppins-Regular;writing-mode:lr-tb;fill:#000000;fill-opacity:1;fill-rule:nonzero;stroke:none"
       id="text3101"
       x="172.715"
       y="-203.698"><tspan
         x="172.715 178.46844 182.18068 188.5645 191.79645 194.20789 196.71939 199.10081 205.48465"
         y="-203.698"
         sodipodi:role="line"
         id="tspan3099">Profiling</tspan></text>
    <path
       d="m 142.696,167.556 v 0 c 0,0.964 0.255,1.899 0.737,2.75 0.482,0.822 1.162,1.53 2.013,2.012 0.822,0.482 1.785,0.737 2.749,0.737 l 88.583,-0.028 v 0 c 0.964,0 1.899,-0.255 2.75,-0.737 0.822,-0.482 1.53,-1.162 2.012,-2.013 0.482,-0.822 0.737,-1.786 0.737,-2.749 v 0 -21.941 0 c 0,-0.963 -0.255,-1.899 -0.737,-2.749 -0.482,-0.822 -1.162,-1.531 -2.012,-2.013 -0.822,-0.482 -1.786,-0.737 -2.75,-0.737 h -88.611 v 0 c -0.964,0 -1.899,0.255 -2.75,0.737 -0.822,0.482 -1.53,1.162 -2.012,2.013 -0.482,0.822 -0.737,1.786 -0.737,2.749 z"
       style="fill:#ffffff;fill-opacity:1;fill-rule:evenodd;stroke:none"
       id="path3103"
       clip-path="url(#clipPath4331)" />
    <path
       d="m 142.696,167.556 v 0 c 0,0.964 0.255,1.899 0.737,2.75 0.482,0.822 1.162,1.53 2.013,2.012 0.822,0.482 1.785,0.737 2.749,0.737 l 88.583,-0.028 v 0 c 0.964,0 1.899,-0.255 2.75,-0.737 0.822,-0.482 1.53,-1.162 2.012,-2.013 0.482,-0.822 0.737,-1.786 0.737,-2.749 v 0 -21.941 0 c 0,-0.963 -0.255,-1.899 -0.737,-2.749 -0.482,-0.822 -1.162,-1.531 -2.012,-2.013 -0.822,-0.482 -1.786,-0.737 -2.75,-0.737 h -88.611 v 0 c -0.964,0 -1.899,0.255 -2.75,0.737 -0.822,0.482 -1.53,1.162 -2.012,2.013 -0.482,0.822 -0.737,1.786 -0.737,2.749 z"
       style="fill:none;stroke:#0a427f;stroke-width:0.73699;stroke-linecap:butt;stroke-linejoin:round;stroke-miterlimit:10;stroke-dasharray:none;stroke-opacity:1"
       id="path3107"
       clip-path="url(#clipPath5527)" />
    <text
       xml:space="preserve"
       transform="scale(1,-1)"
       style="font-variant:normal;font-weight:normal;font-size:10.006px;font-family:Poppins;-inkscape-font-specification:Poppins-Regular;writing-mode:lr-tb;fill:#000000;fill-opacity:1;fill-rule:nonzero;stroke:none"
       id="text3113"
       x="175.66299"
       y="-152.589"><tspan
         x="175.66299 180.93616 187.42004 193.77386 196.1853 202.53911"
         y="-152.589"
         sodipodi:role="line"
         id="tspan3111">Tuning</tspan></text>
    <path
       d="m 142.696,116.391 v 0 c 0,0.963 0.255,1.899 0.737,2.749 0.482,0.822 1.162,1.531 2.013,2.013 0.822,0.482 1.785,0.737 2.749,0.737 l 88.583,-0.029 v 0 c 0.964,0 1.899,-0.255 2.75,-0.737 0.822,-0.481 1.53,-1.162 2.012,-2.012 0.482,-0.822 0.737,-1.786 0.737,-2.75 v 0 -21.94 0 c 0,-0.964 -0.255,-1.899 -0.737,-2.75 -0.482,-0.822 -1.162,-1.53 -2.012,-2.012 -0.822,-0.482 -1.786,-0.737 -2.75,-0.737 h -88.611 v 0 c -0.964,0 -1.899,0.255 -2.75,0.737 -0.822,0.482 -1.53,1.162 -2.012,2.012 -0.482,0.822 -0.737,1.786 -0.737,2.75 z"
       style="fill:#ffffff;fill-opacity:1;fill-rule:evenodd;stroke:none"
       id="path3115"
       clip-path="url(#clipPath4319)" />
    <path
       d="m 142.696,116.391 v 0 c 0,0.963 0.255,1.899 0.737,2.749 0.482,0.822 1.162,1.531 2.013,2.013 0.822,0.482 1.785,0.737 2.749,0.737 l 88.583,-0.029 v 0 c 0.964,0 1.899,-0.255 2.75,-0.737 0.822,-0.481 1.53,-1.162 2.012,-2.012 0.482,-0.822 0.737,-1.786 0.737,-2.75 v 0 -21.94 0 c 0,-0.964 -0.255,-1.899 -0.737,-2.75 -0.482,-0.822 -1.162,-1.53 -2.012,-2.012 -0.822,-0.482 -1.786,-0.737 -2.75,-0.737 h -88.611 v 0 c -0.964,0 -1.899,0.255 -2.75,0.737 -0.822,0.482 -1.53,1.162 -2.012,2.012 -0.482,0.822 -0.737,1.786 -0.737,2.75 z"
       style="fill:none;stroke:#0a427f;stroke-width:0.73699;stroke-linecap:butt;stroke-linejoin:round;stroke-miterlimit:10;stroke-dasharray:none;stroke-opacity:1"
       id="path3119"
       clip-path="url(#clipPath5385)" />
    <text
       xml:space="preserve"
       transform="scale(1,-1)"
       style="font-variant:normal;font-weight:normal;font-size:10.006px;font-family:Poppins;-inkscape-font-specification:Poppins-Regular;writing-mode:lr-tb;fill:#000000;fill-opacity:1;fill-rule:nonzero;stroke:none"
       id="text3125"
       x="176.315"
       y="-101.424"><tspan
         x="176.315 180.51752 183.02902 189.38284 192.985 195.49651 201.88033"
         y="-101.424"
         sodipodi:role="line"
         id="tspan3123">Linting</tspan></text>
    <path
       d="m 538.469,300.869 v 0 c 0,3.714 0.964,7.342 2.835,10.574 1.842,3.203 4.507,5.867 7.739,7.71 3.203,1.871 6.859,2.834 10.544,2.834 h 84.501 v 0 c 3.714,0 7.342,-0.963 10.573,-2.834 3.204,-1.843 5.868,-4.507 7.711,-7.739 1.871,-3.203 2.834,-6.86 2.834,-10.545 v 0 l 0.029,-205.625 v 0 c 0,-3.713 -0.964,-7.342 -2.835,-10.573 -1.843,-3.203 -4.507,-5.868 -7.739,-7.71 -3.203,-1.871 -6.859,-2.835 -10.544,-2.835 l -84.53,-0.028 v 0 c -3.713,0 -7.341,0.963 -10.573,2.834 -3.203,1.843 -5.868,4.507 -7.71,7.739 -1.871,3.203 -2.835,6.86 -2.835,10.545 z"
       style="fill:#f3f3f3;fill-opacity:1;fill-rule:evenodd;stroke:none"
       id="path3129"
       clip-path="url(#clipPath4301)" />
    <path
       d="m 538.469,300.869 v 0 c 0,3.714 0.964,7.342 2.835,10.574 1.842,3.203 4.507,5.867 7.739,7.71 3.203,1.871 6.859,2.834 10.544,2.834 h 84.501 v 0 c 3.714,0 7.342,-0.963 10.573,-2.834 3.204,-1.843 5.868,-4.507 7.711,-7.739 1.871,-3.203 2.834,-6.86 2.834,-10.545 v 0 l 0.029,-205.625 v 0 c 0,-3.713 -0.964,-7.342 -2.835,-10.573 -1.843,-3.203 -4.507,-5.868 -7.739,-7.71 -3.203,-1.871 -6.859,-2.835 -10.544,-2.835 l -84.53,-0.028 v 0 c -3.713,0 -7.341,0.963 -10.573,2.834 -3.203,1.843 -5.868,4.507 -7.71,7.739 -1.871,3.203 -2.835,6.86 -2.835,10.545 z"
       style="fill:none;stroke:#0a427f;stroke-width:0.73699;stroke-linecap:butt;stroke-linejoin:round;stroke-miterlimit:10;stroke-dasharray:none;stroke-opacity:1"
       id="path3133"
       clip-path="url(#clipPath5655)" />
    <text
       xml:space="preserve"
       transform="scale(1,-1)"
       style="font-variant:normal;font-weight:normal;font-size:13.011px;font-family:Poppins;-inkscape-font-specification:Poppins-Regular;writing-mode:lr-tb;fill:#000000;fill-opacity:1;fill-rule:nonzero;stroke:none"
       id="text3139"
       x="552.67102"
       y="-299.19699"><tspan
         x="552.67102 560.36047 568.6485 575.36218 582.07587 590.36389 597.09058 600.56451 607.2912 615.57916 624.34857 633.11804 641.53613 646.33722"
         y="-299.19699"
         sodipodi:role="line"
         id="tspan3137">Kokkos support</tspan></text>
    <path
       d="m 552.501,276.009 v 0 c 0,0.794 0.198,1.588 0.623,2.297 0.397,0.708 0.964,1.275 1.673,1.672 0.709,0.425 1.502,0.624 2.296,0.624 h 89.745 v 0 c 0.793,0 1.587,-0.199 2.296,-0.624 0.709,-0.397 1.275,-0.964 1.672,-1.672 0.425,-0.709 0.624,-1.503 0.624,-2.297 v 0 l 0.028,-18.368 v 0 c 0,-0.794 -0.198,-1.587 -0.623,-2.296 -0.397,-0.709 -0.964,-1.276 -1.673,-1.673 -0.708,-0.425 -1.502,-0.623 -2.296,-0.623 l -89.773,-0.029 v 0 c -0.794,0 -1.587,0.199 -2.296,0.624 -0.709,0.397 -1.276,0.964 -1.673,1.673 -0.425,0.708 -0.623,1.502 -0.623,2.296 z"
       style="fill:#ffffff;fill-opacity:1;fill-rule:evenodd;stroke:none"
       id="path3141"
       clip-path="url(#clipPath4289)" />
    <path
       d="m 552.501,276.009 v 0 c 0,0.794 0.198,1.588 0.623,2.297 0.397,0.708 0.964,1.275 1.673,1.672 0.709,0.425 1.502,0.624 2.296,0.624 h 89.745 v 0 c 0.793,0 1.587,-0.199 2.296,-0.624 0.709,-0.397 1.275,-0.964 1.672,-1.672 0.425,-0.709 0.624,-1.503 0.624,-2.297 v 0 l 0.028,-18.368 v 0 c 0,-0.794 -0.198,-1.587 -0.623,-2.296 -0.397,-0.709 -0.964,-1.276 -1.673,-1.673 -0.708,-0.425 -1.502,-0.623 -2.296,-0.623 l -89.773,-0.029 v 0 c -0.794,0 -1.587,0.199 -2.296,0.624 -0.709,0.397 -1.276,0.964 -1.673,1.673 -0.425,0.708 -0.623,1.502 -0.623,2.296 z"
       style="fill:none;stroke:#0a427f;stroke-width:0.73699;stroke-linecap:butt;stroke-linejoin:round;stroke-miterlimit:10;stroke-dasharray:none;stroke-opacity:1"
       id="path3145"
       clip-path="url(#clipPath5425)" />
    <text
       xml:space="preserve"
       transform="scale(1,-1)"
       style="font-variant:normal;font-weight:normal;font-size:10.006px;font-family:Poppins;-inkscape-font-specification:Poppins-Regular;writing-mode:lr-tb;fill:#000000;fill-opacity:1;fill-rule:nonzero;stroke:none"
       id="text3151"
       x="563.07397"
       y="-262.828"><tspan
         x="563.07397 570.04816 576.40198 582.51569 588.86945 599.07556 605.30933 611.69318 615.29529 622.01935 625.62152 628.10297 634.48682"
         y="-262.828"
         sodipodi:role="line"
         id="tspan3149">Documentation</tspan></text>
    <path
       d="m 552.501,233.235 v 0 c 0,0.793 0.198,1.587 0.623,2.296 0.397,0.708 0.964,1.275 1.673,1.672 0.709,0.425 1.502,0.624 2.296,0.624 h 89.745 v 0 c 0.793,0 1.587,-0.199 2.296,-0.624 0.709,-0.397 1.275,-0.964 1.672,-1.672 0.425,-0.709 0.624,-1.503 0.624,-2.296 v 0 l 0.028,-18.369 v 0 c 0,-0.794 -0.198,-1.587 -0.623,-2.296 -0.397,-0.709 -0.964,-1.276 -1.673,-1.672 -0.708,-0.426 -1.502,-0.624 -2.296,-0.624 l -89.773,-0.028 v 0 c -0.794,0 -1.587,0.198 -2.296,0.623 -0.709,0.397 -1.276,0.964 -1.673,1.673 -0.425,0.708 -0.623,1.502 -0.623,2.296 z"
       style="fill:#ffffff;fill-opacity:1;fill-rule:evenodd;stroke:none"
       id="path3153"
       clip-path="url(#clipPath4277)" />
    <path
       d="m 552.501,233.235 v 0 c 0,0.793 0.198,1.587 0.623,2.296 0.397,0.708 0.964,1.275 1.673,1.672 0.709,0.425 1.502,0.624 2.296,0.624 h 89.745 v 0 c 0.793,0 1.587,-0.199 2.296,-0.624 0.709,-0.397 1.275,-0.964 1.672,-1.672 0.425,-0.709 0.624,-1.503 0.624,-2.296 v 0 l 0.028,-18.369 v 0 c 0,-0.794 -0.198,-1.587 -0.623,-2.296 -0.397,-0.709 -0.964,-1.276 -1.673,-1.672 -0.708,-0.426 -1.502,-0.624 -2.296,-0.624 l -89.773,-0.028 v 0 c -0.794,0 -1.587,0.198 -2.296,0.623 -0.709,0.397 -1.276,0.964 -1.673,1.673 -0.425,0.708 -0.623,1.502 -0.623,2.296 z"
       style="fill:none;stroke:#0a427f;stroke-width:0.73699;stroke-linecap:butt;stroke-linejoin:round;stroke-miterlimit:10;stroke-dasharray:none;stroke-opacity:1"
       id="path3157"
       clip-path="url(#clipPath5406)" />
    <text
       xml:space="preserve"
       transform="scale(1,-1)"
       style="font-variant:normal;font-weight:normal;font-size:10.006px;font-family:Poppins;-inkscape-font-specification:Poppins-Regular;writing-mode:lr-tb;fill:#000000;fill-opacity:1;fill-rule:nonzero;stroke:none"
       id="text3163"
       x="580.81897"
       y="-220.054"><tspan
         x="580.81897 586.09216 592.57605 596.17822 602.53204 606.24426 608.6557 615.3797 617.89124"
         y="-220.054"
         sodipodi:role="line"
         id="tspan3161">Tutorials</tspan></text>
    <path
       d="m 552.501,190.517 v 0 c 0,0.793 0.198,1.587 0.623,2.296 0.397,0.708 0.964,1.275 1.673,1.672 0.709,0.425 1.502,0.624 2.296,0.624 h 89.745 v 0 c 0.793,0 1.587,-0.199 2.296,-0.624 0.709,-0.397 1.275,-0.964 1.672,-1.672 0.425,-0.709 0.624,-1.503 0.624,-2.296 v 0 l 0.028,-18.369 v 0 c 0,-0.794 -0.198,-1.587 -0.623,-2.296 -0.397,-0.709 -0.964,-1.276 -1.673,-1.672 -0.708,-0.426 -1.502,-0.624 -2.296,-0.624 l -89.773,-0.028 v 0 c -0.794,0 -1.587,0.198 -2.296,0.623 -0.709,0.397 -1.276,0.964 -1.673,1.673 -0.425,0.708 -0.623,1.502 -0.623,2.296 z"
       style="fill:#ffffff;fill-opacity:1;fill-rule:evenodd;stroke:none"
       id="path3165"
       clip-path="url(#clipPath4265)" />
    <path
       d="m 552.501,190.517 v 0 c 0,0.793 0.198,1.587 0.623,2.296 0.397,0.708 0.964,1.275 1.673,1.672 0.709,0.425 1.502,0.624 2.296,0.624 h 89.745 v 0 c 0.793,0 1.587,-0.199 2.296,-0.624 0.709,-0.397 1.275,-0.964 1.672,-1.672 0.425,-0.709 0.624,-1.503 0.624,-2.296 v 0 l 0.028,-18.369 v 0 c 0,-0.794 -0.198,-1.587 -0.623,-2.296 -0.397,-0.709 -0.964,-1.276 -1.673,-1.672 -0.708,-0.426 -1.502,-0.624 -2.296,-0.624 l -89.773,-0.028 v 0 c -0.794,0 -1.587,0.198 -2.296,0.623 -0.709,0.397 -1.276,0.964 -1.673,1.673 -0.425,0.708 -0.623,1.502 -0.623,2.296 z"
       style="fill:none;stroke:#0a427f;stroke-width:0.73699;stroke-linecap:butt;stroke-linejoin:round;stroke-miterlimit:10;stroke-dasharray:none;stroke-opacity:1"
       id="path3169"
       clip-path="url(#clipPath5442)" />
    <text
       xml:space="preserve"
       transform="scale(1,-1)"
       style="font-variant:normal;font-weight:normal;font-size:10.006px;font-family:Poppins;-inkscape-font-specification:Poppins-Regular;writing-mode:lr-tb;fill:#000000;fill-opacity:1;fill-rule:nonzero;stroke:none"
       id="text3175"
       x="579.26001"
       y="-177.33501"><tspan
         x="579.26001 584.53314 588.26538 594.98944 597.47095 603.85474 606.26617 612.72009 619.44409"
         y="-177.33501"
         sodipodi:role="line"
         id="tspan3173">Trainings</tspan></text>
    <path
       d="m 552.501,147.742 v 0 c 0,0.793 0.198,1.587 0.623,2.296 0.397,0.708 0.964,1.275 1.673,1.672 0.709,0.425 1.502,0.624 2.296,0.624 h 89.745 v 0 c 0.793,0 1.587,-0.199 2.296,-0.624 0.709,-0.397 1.275,-0.964 1.672,-1.672 0.425,-0.709 0.624,-1.503 0.624,-2.296 v 0 l 0.028,-18.369 v 0 c 0,-0.793 -0.198,-1.587 -0.623,-2.296 -0.397,-0.708 -0.964,-1.275 -1.673,-1.672 -0.708,-0.425 -1.502,-0.624 -2.296,-0.624 l -89.773,-0.028 v 0 c -0.794,0 -1.587,0.198 -2.296,0.623 -0.709,0.397 -1.276,0.964 -1.673,1.673 -0.425,0.708 -0.623,1.502 -0.623,2.296 z"
       style="fill:#ffffff;fill-opacity:1;fill-rule:evenodd;stroke:none"
       id="path3177"
       clip-path="url(#clipPath4253)" />
    <path
       d="m 552.501,147.742 v 0 c 0,0.793 0.198,1.587 0.623,2.296 0.397,0.708 0.964,1.275 1.673,1.672 0.709,0.425 1.502,0.624 2.296,0.624 h 89.745 v 0 c 0.793,0 1.587,-0.199 2.296,-0.624 0.709,-0.397 1.275,-0.964 1.672,-1.672 0.425,-0.709 0.624,-1.503 0.624,-2.296 v 0 l 0.028,-18.369 v 0 c 0,-0.793 -0.198,-1.587 -0.623,-2.296 -0.397,-0.708 -0.964,-1.275 -1.673,-1.672 -0.708,-0.425 -1.502,-0.624 -2.296,-0.624 l -89.773,-0.028 v 0 c -0.794,0 -1.587,0.198 -2.296,0.623 -0.709,0.397 -1.276,0.964 -1.673,1.673 -0.425,0.708 -0.623,1.502 -0.623,2.296 z"
       style="fill:none;stroke:#0a427f;stroke-width:0.73699;stroke-linecap:butt;stroke-linejoin:round;stroke-miterlimit:10;stroke-dasharray:none;stroke-opacity:1"
       id="path3181"
       clip-path="url(#clipPath5457)" />
    <text
       xml:space="preserve"
       transform="scale(1,-1)"
       style="font-variant:normal;font-weight:normal;font-size:10.006px;font-family:Poppins;-inkscape-font-specification:Poppins-Regular;writing-mode:lr-tb;fill:#000000;fill-opacity:1;fill-rule:nonzero;stroke:none"
       id="text3187"
       x="565.45502"
       y="-134.561"><tspan
         x="565.45502 573.2597 579.64349 582.02496 584.53644 590.89026 597.01392 599.67554 604.93866 611.29248 618.01654 624.74054 631.12439 634.83661"
         y="-134.561"
         sodipodi:role="line"
         id="tspan3185">Online support</tspan></text>
    <path
       d="m 551.849,104.967 v 0 c 0,0.794 0.198,1.587 0.623,2.296 0.397,0.709 0.964,1.276 1.673,1.672 0.709,0.426 1.502,0.624 2.296,0.624 h 89.745 v 0 c 0.794,0 1.587,-0.198 2.296,-0.624 0.709,-0.396 1.275,-0.963 1.672,-1.672 0.426,-0.709 0.624,-1.502 0.624,-2.296 v 0 l 0.028,-18.369 v 0 c 0,-0.793 -0.198,-1.587 -0.623,-2.296 -0.397,-0.708 -0.964,-1.275 -1.673,-1.672 -0.708,-0.425 -1.502,-0.624 -2.296,-0.624 l -89.773,-0.028 v 0 c -0.794,0 -1.587,0.198 -2.296,0.624 -0.709,0.396 -1.276,0.963 -1.673,1.672 -0.425,0.709 -0.623,1.502 -0.623,2.296 z"
       style="fill:#ffffff;fill-opacity:1;fill-rule:evenodd;stroke:none"
       id="path3189"
       clip-path="url(#clipPath4241)" />
    <path
       d="m 551.849,104.967 v 0 c 0,0.794 0.198,1.587 0.623,2.296 0.397,0.709 0.964,1.276 1.673,1.672 0.709,0.426 1.502,0.624 2.296,0.624 h 89.745 v 0 c 0.794,0 1.587,-0.198 2.296,-0.624 0.709,-0.396 1.275,-0.963 1.672,-1.672 0.426,-0.709 0.624,-1.502 0.624,-2.296 v 0 l 0.028,-18.369 v 0 c 0,-0.793 -0.198,-1.587 -0.623,-2.296 -0.397,-0.708 -0.964,-1.275 -1.673,-1.672 -0.708,-0.425 -1.502,-0.624 -2.296,-0.624 l -89.773,-0.028 v 0 c -0.794,0 -1.587,0.198 -2.296,0.624 -0.709,0.396 -1.276,0.963 -1.673,1.672 -0.425,0.709 -0.623,1.502 -0.623,2.296 z"
       style="fill:none;stroke:#0a427f;stroke-width:0.73699;stroke-linecap:butt;stroke-linejoin:round;stroke-miterlimit:10;stroke-dasharray:none;stroke-opacity:1"
       id="path3193"
       clip-path="url(#clipPath5604)" />
    <text
       xml:space="preserve"
       transform="scale(1,-1)"
       style="font-variant:normal;font-weight:normal;font-size:10.006px;font-family:Poppins;-inkscape-font-specification:Poppins-Regular;writing-mode:lr-tb;fill:#000000;fill-opacity:1;fill-rule:nonzero;stroke:none"
       id="text3199"
       x="571.578"
       y="-91.786003"><tspan
         x="571.578 578.41211 585.13611 591.14972 596.30286 603.02686 606.62903 613.11292 619.46674 625.82056"
         y="-91.786003"
         sodipodi:role="line"
         id="tspan3197">Hackathons</tspan></text>
    <path
       d="m 445.861,235.106 v 0 c 0,0.708 0.199,1.417 0.539,2.04 0.369,0.624 0.879,1.134 1.502,1.503 0.624,0.368 1.333,0.538 2.041,0.538 h 62.306 v 0 c 0.708,0 1.417,-0.198 2.041,-0.538 0.623,-0.369 1.134,-0.879 1.502,-1.503 0.369,-0.623 0.539,-1.332 0.539,-2.04 v 0 l 0.028,-16.328 v 0 c 0,-0.709 -0.198,-1.417 -0.539,-2.041 -0.368,-0.624 -0.878,-1.134 -1.502,-1.502 -0.624,-0.369 -1.332,-0.539 -2.041,-0.539 l -62.334,-0.028 v 0 c -0.708,0 -1.417,0.198 -2.041,0.538 -0.623,0.369 -1.133,0.879 -1.502,1.503 -0.369,0.623 -0.539,1.332 -0.539,2.041 z"
       style="fill:#f3f3f3;fill-opacity:1;fill-rule:evenodd;stroke:none"
       id="path3201"
       clip-path="url(#clipPath4229)" />
    <path
       d="m 445.861,235.106 v 0 c 0,0.708 0.199,1.417 0.539,2.04 0.369,0.624 0.879,1.134 1.502,1.503 0.624,0.368 1.333,0.538 2.041,0.538 h 62.306 v 0 c 0.708,0 1.417,-0.198 2.041,-0.538 0.623,-0.369 1.134,-0.879 1.502,-1.503 0.369,-0.623 0.539,-1.332 0.539,-2.04 v 0 l 0.028,-16.328 v 0 c 0,-0.709 -0.198,-1.417 -0.539,-2.041 -0.368,-0.624 -0.878,-1.134 -1.502,-1.502 -0.624,-0.369 -1.332,-0.539 -2.041,-0.539 l -62.334,-0.028 v 0 c -0.708,0 -1.417,0.198 -2.041,0.538 -0.623,0.369 -1.133,0.879 -1.502,1.503 -0.369,0.623 -0.539,1.332 -0.539,2.041 z"
       style="fill:none;stroke:#3e4a83;stroke-width:0.73699;stroke-linecap:butt;stroke-linejoin:round;stroke-miterlimit:10;stroke-dasharray:none;stroke-opacity:1"
       id="path3205"
       clip-path="url(#clipPath5670)" />
    <text
       xml:space="preserve"
       transform="scale(1,-1)"
       style="font-variant:normal;font-weight:normal;font-size:11.991px;font-family:Poppins;-inkscape-font-specification:Poppins-Regular;writing-mode:lr-tb;fill:#000000;fill-opacity:1;fill-rule:nonzero;stroke:none"
       id="text3211"
       x="464.14499"
       y="-222.151"><tspan
         x="464.14499 470.96786 477.19122 483.67834 490.75302"
         y="-222.151"
         sodipodi:role="line"
         id="tspan3209">PETSc</tspan></text>
    <path
       d="m 368.362,235.106 v 0 c 0,0.708 0.199,1.417 0.539,2.04 0.368,0.624 0.879,1.134 1.502,1.503 0.624,0.368 1.332,0.538 2.041,0.538 h 62.306 v 0 c 0.708,0 1.417,-0.198 2.041,-0.538 0.623,-0.369 1.133,-0.879 1.502,-1.503 0.368,-0.623 0.538,-1.332 0.538,-2.04 v 0 l 0.029,-16.328 v 0 c 0,-0.709 -0.199,-1.417 -0.539,-2.041 -0.368,-0.624 -0.878,-1.134 -1.502,-1.502 -0.624,-0.369 -1.332,-0.539 -2.041,-0.539 l -62.334,-0.028 v 0 c -0.709,0 -1.417,0.198 -2.041,0.538 -0.623,0.369 -1.134,0.879 -1.502,1.503 -0.369,0.623 -0.539,1.332 -0.539,2.041 z"
       style="fill:#f3f3f3;fill-opacity:1;fill-rule:evenodd;stroke:none"
       id="path3213"
       clip-path="url(#clipPath4217)" />
    <path
       d="m 368.362,235.106 v 0 c 0,0.708 0.199,1.417 0.539,2.04 0.368,0.624 0.879,1.134 1.502,1.503 0.624,0.368 1.332,0.538 2.041,0.538 h 62.306 v 0 c 0.708,0 1.417,-0.198 2.041,-0.538 0.623,-0.369 1.133,-0.879 1.502,-1.503 0.368,-0.623 0.538,-1.332 0.538,-2.04 v 0 l 0.029,-16.328 v 0 c 0,-0.709 -0.199,-1.417 -0.539,-2.041 -0.368,-0.624 -0.878,-1.134 -1.502,-1.502 -0.624,-0.369 -1.332,-0.539 -2.041,-0.539 l -62.334,-0.028 v 0 c -0.709,0 -1.417,0.198 -2.041,0.538 -0.623,0.369 -1.134,0.879 -1.502,1.503 -0.369,0.623 -0.539,1.332 -0.539,2.041 z"
       style="fill:none;stroke:#3e4a83;stroke-width:0.73699;stroke-linecap:butt;stroke-linejoin:round;stroke-miterlimit:10;stroke-dasharray:none;stroke-opacity:1"
       id="path3217"
       clip-path="url(#clipPath5619)" />
    <text
       xml:space="preserve"
       transform="scale(1,-1)"
       style="font-variant:normal;font-weight:normal;font-size:11.991px;font-family:Poppins;-inkscape-font-specification:Poppins-Regular;writing-mode:lr-tb;fill:#000000;fill-opacity:1;fill-rule:nonzero;stroke:none"
       id="text3223"
       x="382.87601"
       y="-222.151"><tspan
         x="382.87601 389.36313 393.78781 396.77356 399.66339 402.64917 410.29941 417.97366"
         y="-222.151"
         sodipodi:role="line"
         id="tspan3221">Trilinos</tspan></text>
    <path
       d="m 445.861,264.161 v 0 c 0,0.708 0.199,1.417 0.539,2.041 0.369,0.623 0.879,1.133 1.502,1.502 0.624,0.368 1.333,0.539 2.041,0.539 h 62.306 v 0 c 0.708,0 1.417,-0.199 2.041,-0.539 0.623,-0.369 1.134,-0.879 1.502,-1.502 0.369,-0.624 0.539,-1.333 0.539,-2.041 v 0 l 0.028,-16.328 v 0 c 0,-0.709 -0.198,-1.417 -0.539,-2.041 -0.368,-0.623 -0.878,-1.134 -1.502,-1.502 -0.624,-0.369 -1.332,-0.539 -2.041,-0.539 l -62.334,-0.028 v 0 c -0.708,0 -1.417,0.198 -2.041,0.538 -0.623,0.369 -1.133,0.879 -1.502,1.503 -0.369,0.623 -0.539,1.332 -0.539,2.041 z"
       style="fill:#f3f3f3;fill-opacity:1;fill-rule:evenodd;stroke:none"
       id="path3225"
       clip-path="url(#clipPath4205)" />
    <path
       d="m 445.861,264.161 v 0 c 0,0.708 0.199,1.417 0.539,2.041 0.369,0.623 0.879,1.133 1.502,1.502 0.624,0.368 1.333,0.539 2.041,0.539 h 62.306 v 0 c 0.708,0 1.417,-0.199 2.041,-0.539 0.623,-0.369 1.134,-0.879 1.502,-1.502 0.369,-0.624 0.539,-1.333 0.539,-2.041 v 0 l 0.028,-16.328 v 0 c 0,-0.709 -0.198,-1.417 -0.539,-2.041 -0.368,-0.623 -0.878,-1.134 -1.502,-1.502 -0.624,-0.369 -1.332,-0.539 -2.041,-0.539 l -62.334,-0.028 v 0 c -0.708,0 -1.417,0.198 -2.041,0.538 -0.623,0.369 -1.133,0.879 -1.502,1.503 -0.369,0.623 -0.539,1.332 -0.539,2.041 z"
       style="fill:none;stroke:#3e4a83;stroke-width:0.73699;stroke-linecap:butt;stroke-linejoin:round;stroke-miterlimit:10;stroke-dasharray:none;stroke-opacity:1"
       id="path3229"
       clip-path="url(#clipPath5504)" />
    <text
       xml:space="preserve"
       transform="scale(1,-1)"
       style="font-variant:normal;font-weight:normal;font-size:11.991px;font-family:Poppins;-inkscape-font-specification:Poppins-Regular;writing-mode:lr-tb;fill:#000000;fill-opacity:1;fill-rule:nonzero;stroke:none"
       id="text3235"
       x="460.97"
       y="-251.20599"><tspan
         x="460.97 469.01596 473.44064 481.58252 489.25677 493.70544"
         y="-251.20599"
         sodipodi:role="line"
         id="tspan3233">ArborX</tspan></text>
    <path
       d="m 369.213,264.161 v 0 c 0,0.708 0.198,1.417 0.538,2.041 0.369,0.623 0.879,1.133 1.503,1.502 0.623,0.368 1.332,0.539 2.04,0.539 H 435.6 v 0 c 0.709,0 1.417,-0.199 2.041,-0.539 0.624,-0.369 1.134,-0.879 1.502,-1.502 0.369,-0.624 0.539,-1.333 0.539,-2.041 v 0 l 0.028,-16.328 v 0 c 0,-0.709 -0.198,-1.417 -0.538,-2.041 -0.369,-0.623 -0.879,-1.134 -1.503,-1.502 -0.623,-0.369 -1.332,-0.539 -2.041,-0.539 l -62.334,-0.028 v 0 c -0.708,0 -1.417,0.198 -2.04,0.538 -0.624,0.369 -1.134,0.879 -1.503,1.503 -0.368,0.623 -0.538,1.332 -0.538,2.041 z"
       style="fill:#f3f3f3;fill-opacity:1;fill-rule:evenodd;stroke:none"
       id="path3237"
       clip-path="url(#clipPath4193)" />
    <path
       d="m 369.213,264.161 v 0 c 0,0.708 0.198,1.417 0.538,2.041 0.369,0.623 0.879,1.133 1.503,1.502 0.623,0.368 1.332,0.539 2.04,0.539 H 435.6 v 0 c 0.709,0 1.417,-0.199 2.041,-0.539 0.624,-0.369 1.134,-0.879 1.502,-1.502 0.369,-0.624 0.539,-1.333 0.539,-2.041 v 0 l 0.028,-16.328 v 0 c 0,-0.709 -0.198,-1.417 -0.538,-2.041 -0.369,-0.623 -0.879,-1.134 -1.503,-1.502 -0.623,-0.369 -1.332,-0.539 -2.041,-0.539 l -62.334,-0.028 v 0 c -0.708,0 -1.417,0.198 -2.04,0.538 -0.624,0.369 -1.134,0.879 -1.503,1.503 -0.368,0.623 -0.538,1.332 -0.538,2.041 z"
       style="fill:none;stroke:#3e4a83;stroke-width:0.73699;stroke-linecap:butt;stroke-linejoin:round;stroke-miterlimit:10;stroke-dasharray:none;stroke-opacity:1"
       id="path3241"
       clip-path="url(#clipPath5340)" />
    <text
       xml:space="preserve"
       transform="scale(1,-1)"
       style="font-variant:normal;font-weight:normal;font-size:11.991px;font-family:Poppins;-inkscape-font-specification:Poppins-Regular;writing-mode:lr-tb;fill:#000000;fill-opacity:1;fill-rule:nonzero;stroke:none"
       id="text3247"
       x="391.35101"
       y="-251.20599"><tspan
         x="391.35101 399.7327 408.24631"
         y="-251.20599"
         sodipodi:role="line"
         id="tspan3245">DDC</tspan></text>
    <path
       d="m 291.969,241.682 h 13.492 v 57.146 h 27.015 v -57.146 h 13.521 l -27.014,-27.014 z"
       style="fill:#ffffff;fill-opacity:1;fill-rule:evenodd;stroke:none"
       id="path3249"
       clip-path="url(#clipPath4181)" />
    <path
       d="m 291.969,241.682 h 13.492 v 57.146 h 27.015 v -57.146 h 13.521 l -27.014,-27.014 z"
       style="fill:none;stroke:#0093a7;stroke-width:0.73699;stroke-linecap:butt;stroke-linejoin:round;stroke-miterlimit:10;stroke-dasharray:none;stroke-opacity:1"
       id="path3253"
       clip-path="url(#clipPath5634)" />
    <path
       d="m 386.929,285.477 h 8.334 v 13.351 h 16.668 v -13.351 h 8.334 l -16.668,-13.379 z"
       style="fill:#ffffff;fill-opacity:1;fill-rule:evenodd;stroke:none"
       id="path3255"
       clip-path="url(#clipPath4169)" />
    <path
       d="m 386.929,285.477 h 8.334 v 13.351 h 16.668 v -13.351 h 8.334 l -16.668,-13.379 z"
       style="fill:none;stroke:#0093a7;stroke-width:0.73699;stroke-linecap:butt;stroke-linejoin:round;stroke-miterlimit:10;stroke-dasharray:none;stroke-opacity:1"
       id="path3259"
       clip-path="url(#clipPath5557)" />
    <path
       d="m 464.428,285.477 h 8.334 v 13.351 h 16.668 v -13.351 h 8.334 l -16.668,-13.379 z"
       style="fill:#ffffff;fill-opacity:1;fill-rule:evenodd;stroke:none"
       id="path3261"
       clip-path="url(#clipPath4157)" />
    <path
       d="m 464.428,285.477 h 8.334 v 13.351 h 16.668 v -13.351 h 8.334 l -16.668,-13.379 z"
       style="fill:none;stroke:#0093a7;stroke-width:0.73699;stroke-linecap:butt;stroke-linejoin:round;stroke-miterlimit:10;stroke-dasharray:none;stroke-opacity:1"
       id="path3265"
       clip-path="url(#clipPath5355)" />
    <path
       d="m 279.071,331.569 v 0 c 0,1.02 0.255,2.012 0.765,2.891 0.51,0.879 1.247,1.587 2.126,2.097 0.879,0.511 1.871,0.794 2.892,0.794 l 223.001,-0.028 v 0 c 1.021,0 2.013,-0.255 2.891,-0.766 0.879,-0.51 1.588,-1.247 2.098,-2.126 0.51,-0.878 0.794,-1.87 0.794,-2.891 v 0 -23.046 0 c 0,-1.02 -0.255,-2.012 -0.766,-2.891 -0.51,-0.879 -1.247,-1.587 -2.126,-2.097 -0.878,-0.511 -1.87,-0.794 -2.891,-0.794 h -223.03 v 0 c -1.02,0 -2.012,0.255 -2.891,0.765 -0.879,0.51 -1.588,1.247 -2.098,2.126 -0.51,0.879 -0.793,1.871 -0.793,2.891 z"
       style="fill:#f3f3f3;fill-opacity:1;fill-rule:evenodd;stroke:none"
       id="path3267"
       clip-path="url(#clipPath4145)" />
    <path
       d="m 279.071,331.569 v 0 c 0,1.02 0.255,2.012 0.765,2.891 0.51,0.879 1.247,1.587 2.126,2.097 0.879,0.511 1.871,0.794 2.892,0.794 l 223.001,-0.028 v 0 c 1.021,0 2.013,-0.255 2.891,-0.766 0.879,-0.51 1.588,-1.247 2.098,-2.126 0.51,-0.878 0.794,-1.87 0.794,-2.891 v 0 -23.046 0 c 0,-1.02 -0.255,-2.012 -0.766,-2.891 -0.51,-0.879 -1.247,-1.587 -2.126,-2.097 -0.878,-0.511 -1.87,-0.794 -2.891,-0.794 h -223.03 v 0 c -1.02,0 -2.012,0.255 -2.891,0.765 -0.879,0.51 -1.588,1.247 -2.098,2.126 -0.51,0.879 -0.793,1.871 -0.793,2.891 z"
       style="fill:none;stroke:#0093a7;stroke-width:0.73699;stroke-linecap:butt;stroke-linejoin:round;stroke-miterlimit:10;stroke-dasharray:none;stroke-opacity:1"
       id="path3271"
       clip-path="url(#clipPath5572)" />
    <text
       xml:space="preserve"
       transform="scale(1,-1)"
       style="font-variant:normal;font-weight:normal;font-size:11.991px;font-family:Poppins;-inkscape-font-specification:Poppins-Regular;writing-mode:lr-tb;fill:#000000;fill-opacity:1;fill-rule:nonzero;stroke:none"
       id="text3277"
       x="314.53201"
       y="-315.241"><tspan
         x="314.53201 321.61868 329.29291 335.51624 341.63165 349.30591 355.63715 362.23221 370.27817 378.39606 384.65536 392.07779 400.2197 403.33734 411.47925 419.62112 427.6431 430.62888 433.51868 440.80923 448.95111 453.25589 456.24164 463.91589 471.59012"
         y="-315.241"
         sodipodi:role="line"
         id="tspan3275">Kokkos-based applications</tspan></text>
  </g>
</svg>
